<svg width="25" height="25" viewBox="0 0 25 25" fill="none" xmlns="http://www.w3.org/2000/svg">
<path d="M15.5002 8.46924H17.777L19.277 6.96924L19.5002 4.46924H21.5002V10.4692H15.5002V8.46924Z" fill="#0B1F35"/>
<path d="M5.56688 12.4692C6.50002 6.96924 9.10598 5.46924 12.277 5.46924C14.6557 5.46924 16.277 6.46924 17.777 8.46924L19.277 8.46924L19.277 6.96924C17.7769 4.96924 15.1043 3.46924 12.277 3.46924C7.99383 3.46924 4.00002 6.46924 3.50002 12.4692H5.56688Z" fill="#0B1F35"/>
<path d="M9.5 16.4692H7.22316L5.72316 17.9692L5.5 20.4692H3.5V14.4692H9.5V16.4692Z" fill="#0B1F35"/>
<path d="M19.4333 12.4692C18.5001 17.9692 15.8942 19.4692 12.7232 19.4692C10.3444 19.4692 8.72316 18.4692 7.22316 16.4692L5.72316 16.4692L5.72316 17.9692C7.22329 19.9692 9.89589 21.4692 12.7232 21.4692C17.0063 21.4692 21.0001 18.4692 21.5001 12.4692H19.4333Z" fill="#0B1F35"/>
</svg>
